<?xml version="1.0" encoding="UTF-8"?>
<svg width="900" height="600" viewBox="0 0 900 600" fill="none" xmlns="http://www.w3.org/2000/svg">
  <path fill="#bceaed" d="M0 0h900v600H0z"/>
  <circle cx="450.609" cy="300" r="149.609" fill="#fff"/>
  <path fill="#bceaed" d="M437.654 266.661h25.909v66.679h-25.909z"/>
  <path d="M437.654 274.547c1.861-4.347 4.516-8.268 7.823-11.544 3.307-3.275 7.198-5.837 11.456-7.547v11.205h6.63v-11.205c4.258 1.71 8.149 4.272 11.456 7.547 3.307 3.276 5.962 7.197 7.823 11.544h-45.188z" fill="#9bd5da"/>
  <path d="M450.609 370.371c-38.865 0-70.371-31.506-70.371-70.371s31.506-70.371 70.371-70.371 70.371 31.506 70.371 70.371-31.506 70.371-70.371 70.371zm0-125.742c-30.58 0-55.371 24.791-55.371 55.371s24.791 55.371 55.371 55.371 55.371-24.791 55.371-55.371-24.791-55.371-55.371-55.371z" fill="#9bd5da"/>
  <path d="M450.609 355.371c-30.58 0-55.371-24.791-55.371-55.371s24.791-55.371 55.371-55.371 55.371 24.791 55.371 55.371-24.791 55.371-55.371 55.371zm0-95.742c-22.295 0-40.371 18.076-40.371 40.371s18.076 40.371 40.371 40.371 40.371-18.076 40.371-40.371-18.076-40.371-40.371-40.371z" fill="#bceaed"/>
  <path d="M450.609 340.371c-22.295 0-40.371-18.076-40.371-40.371s18.076-40.371 40.371-40.371 40.371 18.076 40.371 40.371-18.076 40.371-40.371 40.371zm0-65.742c-14.01 0-25.371 11.361-25.371 25.371s11.361 25.371 25.371 25.371 25.371-11.361 25.371-25.371-11.361-25.371-25.371-25.371z" fill="#9bd5da"/>
  <circle cx="450.609" cy="300" r="15" fill="#bceaed"/>
</svg>